<svg width="61" height="61" viewBox="0 0 61 61" fill="none" xmlns="http://www.w3.org/2000/svg">
<path d="M9.36042 51.7867C21.0761 63.5024 40.0711 63.5024 51.7868 51.7867C63.5026 40.071 63.5026 21.076 51.7868 9.36028C40.0711 -2.35544 21.0761 -2.35545 9.36042 9.36028C-2.35531 21.076 -2.35531 40.071 9.36042 51.7867ZM32.4486 43.5652C32.4486 44.6007 31.6091 45.4402 30.5736 45.4402C29.5381 45.4402 28.6986 44.6007 28.6986 43.5652L28.6986 21.8419L21.3596 29.1809C20.6273 29.9131 19.4401 29.9131 18.7079 29.1809C17.9757 28.4487 17.9757 27.2615 18.7079 26.5293L29.2478 15.9894C29.98 15.2571 31.1672 15.2572 31.8994 15.9894L42.4394 26.5294C43.1716 27.2616 43.1716 28.4488 42.4394 29.181C41.7072 29.9133 40.52 29.9133 39.7878 29.181L32.4486 21.8419V43.5652Z" fill="#A44234"/>
</svg>
